<svg xmlns="http://www.w3.org/2000/svg" viewBox="0 0 256 256" fill="none" stroke="#1a1a1a" stroke-width="12" stroke-linecap="round" stroke-linejoin="round">
  <!-- Yellow background circle -->
  <circle cx="128" cy="128" r="120" fill="#FFD93D" stroke="none"/>
  <!-- Idea rays -->
  <line x1="128" y1="48" x2="128" y2="16"/>
  <line x1="128" y1="208" x2="128" y2="240"/>
  <line x1="48" y1="128" x2="16" y2="128"/>
  <line x1="208" y1="128" x2="240" y2="128"/>
  <line x1="68" y1="68" x2="44" y2="44"/>
  <line x1="188" y1="68" x2="212" y2="44"/>
  <line x1="68" y1="188" x2="44" y2="212"/>
  <line x1="188" y1="188" x2="212" y2="212"/>
  <!-- Big Ralph head -->
  <circle cx="128" cy="128" r="72"/>
  <!-- Spiky hair bumps -->
  <path d="M80,72 Q90,56 100,72" fill="none"/>
  <path d="M116,64 Q128,48 140,64" fill="none"/>
  <path d="M156,72 Q166,56 176,72" fill="none"/>
  <!-- Ralph eyes - big and derpy -->
  <circle cx="104" cy="118" r="12" fill="#1a1a1a"/>
  <circle cx="152" cy="122" r="12" fill="#1a1a1a"/>
  <!-- Cute nose -->
  <circle cx="128" cy="140" r="4" fill="#1a1a1a"/>
  <!-- Happy derpy smile -->
  <path d="M100,160 Q128,184 156,160" fill="none"/>
</svg>
